<svg id="Layer_1" data-name="Layer 1" xmlns="http://www.w3.org/2000/svg" viewBox="0 0 256 256"><defs><style>.cls-1{fill:#d5d5d5;}</style></defs><path class="cls-1" d="M93.56,108.89q0,8.73-.06,17.44c34.17-1.65,68.39-19.51,102.5-5q0-8.72.07-17.44c-34.12-14.5-68.35,3.37-102.51,5"/><path class="cls-1" d="M93.44,143.17q0,8.73-.06,17.45c34.16-1.65,68.39-19.52,102.5-5l.06-17.45c-34.11-14.5-68.34,3.37-102.5,5"/><path class="cls-1" d="M188.45,27c-1.22-.72-2.45-1.43-3.69-2.11a119,119,0,0,0-167,59.6q-1.65,4-3,8.25a119.17,119.17,0,0,0-5.37,27c-.25,3.19-.39,6.41-.39,9.67a118.37,118.37,0,0,0,.84,14l5.32-.64a116.15,116.15,0,0,1-.78-13.39c0-3.11.13-6.19.37-9.24a113.22,113.22,0,0,1,5.13-25.77l4.31,1.39s0,0,0,0l3.32,1.08q1.21-3.72,2.68-7.31L27,88.35s0,0,0-.07A109,109,0,0,1,147,22.19a106.75,106.75,0,0,1,15.74,4A108.59,108.59,0,0,1,180,33.77l2.24-4.15c1.18.65,2.35,1.32,3.52,2a112.39,112.39,0,0,1,15,10.61l3.42-4.14A118.49,118.49,0,0,0,188.45,27"/><path class="cls-1" d="M246.48,123.22c-.13-2.69-.37-5.34-.68-8h0a118.55,118.55,0,0,0-17.1-48.64l-4.57,2.84a112.49,112.49,0,0,1,9.94,20.17,113.7,113.7,0,0,1,6.35,26.21l-4.67.55-3.46.42c.27,2.35.48,4.72.61,7.12l3.48-.18c.1,1.88.15,3.76.15,5.65a108.85,108.85,0,0,1-122.82,108l-.14,1-.47,3.62c-1.66-.22-3.31-.47-4.95-.76-1.24-.21-2.47-.45-3.7-.71l-1-.21-.74-.17a108.25,108.25,0,0,1-11.06-3.09L90,242.17a118.06,118.06,0,0,0,17.25,4.37c1.72.31,3.45.57,5.19.8v0a122,122,0,0,0,15.26,1,118.91,118.91,0,0,0,119-119c0-2.06,0-4.12-.16-6.16"/><path class="cls-1" d="M236.41,123.73l-3.49.18c.1,1.81.15,3.64.15,5.48A105.33,105.33,0,0,1,127.69,234.77a107.29,107.29,0,0,1-13.5-.86l-.45,3.46a110.57,110.57,0,0,0,14,.88A108.75,108.75,0,0,0,236.56,129.39c0-1.9-.05-3.79-.15-5.66M104.48,240.54c1.23.26,2.46.5,3.7.71,1.63.29,3.29.55,4.95.76l.48-3.63A109.47,109.47,0,0,1,77.46,227l-1.69,3.25a112.88,112.88,0,0,0,27,9.9l.75.17,1,.21M180,33.77a107.9,107.9,0,0,0-33-11.58A108.93,108.93,0,0,0,27.06,88.28l3.23,1.31A105.46,105.46,0,0,1,161.61,29.52a104.19,104.19,0,0,1,16.7,7.32c1.11.6,2.19,1.23,3.26,1.86l1.78-3c-1.12-.65-2.24-1.31-3.38-1.92m75.86,89c-.16-2.86-.4-5.69-.74-8.51h0a128.77,128.77,0,0,0-7.22-29.77L244,85.91a124.88,124.88,0,0,1,7,28.76h0c.33,2.73.57,5.5.71,8.29.11,2.12.16,4.27.16,6.43a124.2,124.2,0,0,1-98.4,121.48l.85,4A128.36,128.36,0,0,0,256,129.39q0-3.34-.17-6.65M127.89,1.08A128.34,128.34,0,0,0,9,81c-1.18,2.92-2.28,5.89-3.25,8.9A127.89,127.89,0,0,0,0,119l4.13.33a123.12,123.12,0,0,1,5.6-28.16q1.41-4.38,3.14-8.62a124.21,124.21,0,0,1,115-77.3,125.76,125.76,0,0,1,21.75,1.9l.73-4.07a129.26,129.26,0,0,0-22.48-2m68.3,68.71q0,8.52-.07,17C156.34,69.93,116.4,97,76.58,91.11q-.17,42.71-.31,85.39c39.82,5.93,79.76-21.18,119.55-4.28l-.06,17.24C150.3,170.15,104.65,208.29,59.2,189L59.62,69.3c45.45,19.31,91.11-18.82,136.57.49"/></svg>