<svg id="Layer_1" data-name="Layer 1" xmlns="http://www.w3.org/2000/svg" xmlns:xlink="http://www.w3.org/1999/xlink" viewBox="0 0 545 490"><defs><style>.cls-1{fill:#f26319;}.cls-1,.cls-2{isolation:isolate;opacity:0.91;}.cls-2{fill:url(#linear-gradient);}</style><linearGradient id="linear-gradient" x1="-449.81" y1="847.38" x2="-446.4" y2="847.34" gradientTransform="matrix(501.41, 0, 0, -452.17, 225508, 383418.23)" gradientUnits="userSpaceOnUse"><stop offset="0" stop-color="#a30a52"/><stop offset="1" stop-color="#da352a"/></linearGradient></defs><path id="Path_4" data-name="Path 4" class="cls-1" d="M108.4,199.09c5.88-45.72,13-92.4,39.87-127.5,26.64-35,73.23-58.07,121.07-66.84,48-9.16,97.32-3.73,132.82,18.19,35.63,22.17,57.13,61,84.39,100.8,27.39,39.44,60.26,80.05,58.38,121-1.62,40.84-38,82-76.53,120.59-38.79,38.69-80.27,74.37-129.82,91.42s-107.18,15.49-149.5-8.15-69.19-69.12-80.29-114.23C97.83,289.55,102.52,244.81,108.4,199.09Z"/><path id="Path_5" data-name="Path 5" class="cls-2" d="M394.35,90c46.75,25.91,95.31,57.24,105,98.82,9.95,41.27-19,92.48-37.1,147C443.82,390.09,436.28,447.63,404,473.24c-32.27,25.31-89.27,18.38-137.82,6.93a481.88,481.88,0,0,1-129.69-50.31C95.78,407.26,55.06,378,28.82,335.26c-25.94-42.48-37.09-98.82-22-147.33C21.88,139.73,63.2,99.36,109.35,73.45c46.14-26.21,97.11-38,145.37-33.75C302.67,43.92,347.6,64.11,394.35,90Z"/></svg>