<svg id="Layer_1" data-name="Layer 1" xmlns="http://www.w3.org/2000/svg" xmlns:xlink="http://www.w3.org/1999/xlink" viewBox="0 0 320 296"><defs><style>.cls-1{fill:url(#linear-gradient);}</style><linearGradient id="linear-gradient" x1="-257.93" y1="745.48" x2="-255" y2="745.48" gradientTransform="matrix(95.83, -67.1, -67.1, -95.83, 74730.45, 54364.49)" gradientUnits="userSpaceOnUse"><stop offset="0" stop-color="#b70462"/><stop offset="1" stop-color="#e34e3b"/></linearGradient></defs><path class="cls-1" d="M282.48,69c-33.54-14.92-72.71-10.4-105.75-26.86-19.19-11.66-33.93-30.2-55-38.93C91.23-6.49,53,6.29,36.66,34.5c-20.2,32.18-9.94,70.84-12.11,106.41-.22,27-23.72,46.32-24.4,73.26-2.93,85.62,120.73,114.88,155.69,34.89,10.73-21.1,28.82-42.51,54.12-43.88,11.7-.79,23.08,3.51,34.83,2.39,40.55-.69,76.2-36.45,75.09-77.29C319.24,104.7,303.89,82.24,282.48,69Z"/></svg>