<svg id="Layer_1" data-name="Layer 1" xmlns="http://www.w3.org/2000/svg" xmlns:xlink="http://www.w3.org/1999/xlink" viewBox="0 0 1076 564"><defs><style>.cls-1{fill:#f37b29;opacity:0.91;}.cls-2{opacity:0.92;fill:url(#linear-gradient);}</style><linearGradient id="linear-gradient" x1="-839.87" y1="1083.6" x2="-622.22" y2="1083.6" gradientTransform="matrix(0.98, 0.85, -0.86, 0.71, 1877.45, -15.73)" gradientUnits="userSpaceOnUse"><stop offset="0" stop-color="#b61f65"/><stop offset="1" stop-color="#e24d3a"/></linearGradient></defs><path class="cls-1" d="M909.6,503.3C800.44,552.12,699.23,463.44,597,467.87c-103,5.16-235.85,99-290.84,96.06-55.07-3.57-87.52-18.4-126.54-55-45.86-43-70-89.4-85.42-110.23C6.47,280.17-96.14,130.12,175.78,100.31c89.43-3.63,178.16,43.47,295.73,37.26s264.94-65.3,385-55.44C1127.46,108.39,1150.34,397.76,909.6,503.3Z"/><path class="cls-2" d="M150.6,12.19C161.87,1.76,181-4.24,213.7,3.54c32.65,8,62.44,11.51,97.24,23.4,34.52,11.79,74.24,32.23,95.12,59.65s22.65,61.7-1.27,76.74c-23.84,14.85-73.56,10.18-108.35,1.36-34.44-8.91-54-21.76-88.71-9.91S123.5,203.28,94.4,201.11c-29.36-2.27-37.88-43.63-25.67-71.9,12.55-28.35,46.09-43.51,56.36-67.72C135.64,37.38,139.07,22.52,150.6,12.19Z"/></svg>