<svg id="Layer_1" data-name="Layer 1" xmlns="http://www.w3.org/2000/svg" viewBox="0 0 165 158"><defs><style>.cls-1{fill:#424242;}</style></defs><path class="cls-1" d="M21,33.25C68.8,40.19,116.65,7.47,164.5,27.6V7.14c-54.67-23-109.33,23-164,0V150.86c54.67,23,109.33-23,164,0V130.15C116.65,110,68.8,142.75,21,135.8Z"/><path class="cls-1" d="M41.42,54.53v21c41-2.13,82.05-23.73,123.08-6.47v-21c-41-17.25-82,4.34-123.08,6.47"/><path class="cls-1" d="M41.42,116.65c41-2.13,82.05-23.72,123.08-6.47v-21c-41-17.26-82,4.34-123.08,6.47Z"/></svg>