<svg id="Ebene_1" data-name="Ebene 1" xmlns="http://www.w3.org/2000/svg" viewBox="0 0 50 40"><defs><style>.cls-1{fill:#fff;}</style></defs><path id="Logo" class="cls-1" d="M44.19,10c0,.43,0,.87,0,1.3C44.22,24.61,34.06,40,15.48,40h0A28.52,28.52,0,0,1,0,35.46a19.33,19.33,0,0,0,2.4.15A20.32,20.32,0,0,0,15,31.28a10.11,10.11,0,0,1-9.44-7,10,10,0,0,0,4.56-.17A10.1,10.1,0,0,1,2,14.19v-.13a10.09,10.09,0,0,0,4.58,1.27A10.11,10.11,0,0,1,3.43,1.84,28.67,28.67,0,0,0,24.24,12.4,10.11,10.11,0,0,1,41.45,3.18,20,20,0,0,0,47.87.73a10.15,10.15,0,0,1-4.44,5.59,20.24,20.24,0,0,0,5.8-1.59A20.54,20.54,0,0,1,44.19,10Z"/></svg>